<svg enable-background="new 0 0 22 22" viewBox="0 0 22 22" xmlns="http://www.w3.org/2000/svg"><g clip-rule="evenodd" fill="#fff" fill-rule="evenodd"><path d="m11 4.9c-3.3 0-6.1 2.7-6.1 6.1s2.7 6.1 6.1 6.1 6.1-2.8 6.1-6.1-2.8-6.1-6.1-6.1zm0 10c-2.1 0-3.9-1.8-3.9-3.9s1.8-3.9 3.9-3.9 3.9 1.8 3.9 3.9-1.8 3.9-3.9 3.9z"/><circle cx="17.1" cy="4.9" r="1.2"/><path d="m20.2 1.8c-1.1-1.2-2.8-1.8-4.6-1.8h-9.2c-3.8 0-6.4 2.6-6.4 6.4v9.1c0 1.9.6 3.5 1.9 4.7 1.2 1.2 2.8 1.8 4.6 1.8h9c1.9 0 3.5-.6 4.7-1.7 1.2-1.2 1.8-2.8 1.8-4.7v-9.2c0-1.8-.6-3.4-1.8-4.6zm-.2 13.8c0 1.4-.4 2.5-1.2 3.2s-1.9 1.2-3.3 1.2h-9c-1.3 0-2.4-.4-3.2-1.2-.9-.8-1.3-1.9-1.3-3.3v-9.1c0-1.3.4-2.4 1.2-3.2s1.9-1.2 3.3-1.2h9.1c1.3 0 2.4.4 3.2 1.2s1.2 1.9 1.2 3.2z"/></g></svg>